<?xml version="1.0" encoding="UTF-8"?><svg id="_レイヤー_1" xmlns="http://www.w3.org/2000/svg" viewBox="0 0 201.78 214.59"><defs><style>.cls-1{fill:#7caa4a;}</style></defs><path class="cls-1" d="M71.27,47.71h3.33c.39,0,.72-.3.75-.69l.29-3.34c.04-.44-.31-.82-.75-.82h-3.33c-.39,0-.72.3-.75.69l-.29,3.34c-.04.44.31.82.75.82Z"/><path class="cls-1" d="M74.76,63.3h3.33c.39,0,.72-.3.75-.69l.29-3.34c.04-.44-.31-.82-.75-.82h-3.33c-.39,0-.72.3-.75.69l-.29,3.34c-.04.44.31.82.75.82Z"/><path class="cls-1" d="M172.33,54.65l-.06.69h8.84c.44,0,.79.38.75.82l-.35,4.02-.37,4.16c-.03.39-.36.69-.75.69h-3.33c-.44,0-.79-.38-.75-.82l.28-3.2c.04-.44-.31-.82-.75-.82h-8.84c-.39,0-.72.3-.75.69l-.42,4.85-.43,4.86c-.03.39-.36.69-.75.69h-4.15c-.39,0-.72.3-.75.69l-.36,4.16c-.03.39-.36.69-.75.69h-4.16c-.39,0-.72.3-.75.69l-.36,4.16c-.03.39-.36.69-.75.69h-4.16c-.39,0-.72.3-.75.69l-.42,4.86-.48,5.54-.49,5.54-.41,4.73c-.04.44.31.82.75.82h3.89c.44,0,.79.38.75.82l-.41,4.72-.49,5.55-.48,5.54-.48,5.54-.42,4.73c-.04.44.31.82.75.82h3.89c.44,0,.79.38.75.82l-.41,4.72-.48,5.54-.49,5.55-.48,5.54-.49,5.55-.48,5.54-.48,5.54-.49,5.55-.48,5.54-.49,5.54-.48,5.55-.41,4.72c-.04.44.31.82.75.82h3.89c.44,0,.79.38.75.82l-.36,4.03c-.03.39-.36.69-.75.69H10.45c-.44,0-.79-.38-.75-.82l.35-4.03c.03-.39.36-.69.75-.69h37.41c.39,0,.72-.3.75-.69l.42-4.85.49-5.55.48-5.54.49-5.54.48-5.55.48-5.54.43-4.85c.03-.39.36-.69.75-.69h4.15c.39,0,.72-.3.75-.69l.43-4.86.48-5.54.48-5.55.49-5.54.42-4.85c.03-.39.36-.69.75-.69h4.16c.39,0,.72-.3.75-.69l.42-4.86.48-5.54.49-5.54.42-4.86c.03-.39.36-.69.75-.69h4.16c.39,0,.72-.3.75-.69l.42-4.85.48-5.55.49-5.54.42-4.85c.03-.39.36-.69.75-.69h4.16c.39,0,.72-.3.75-.69l.42-4.86.48-5.54.43-4.85c.03-.39.36-.69.75-.69h4.15c.39,0,.72-.3.75-.69l.43-4.86.48-5.54.48-5.54.1-1.04h-4.12c-.39,0-.72.3-.75.69l-.3,3.46c-.03.39-.36.69-.75.69h-3.34c-.44,0-.79-.38-.75-.82l.35-4.02.36-4.16c.03-.39.36-.69.75-.69h8.27c.39,0,.72-.3.75-.69l.39-4.5.06-.69h-13.68c-.44,0-.79-.38-.75-.82l.29-3.34c.03-.39.36-.69.75-.69h18.66c.39,0,.72-.3.75-.69l.42-4.85.43-4.85c.03-.39.36-.69.75-.69h4.15c.39,0,.72-.3.75-.69l.43-4.86.42-4.85c.03-.39.36-.69.75-.69h4.15c.39,0,.72-.3.75-.69l.37-4.16c.03-.39.36-.69.75-.69h4.02c.44,0,.79.38.75.82l-.34,3.9c-.04.44.31.82.75.82h3.89c.44,0,.79.38.75.82l-.34,3.9c-.04.44.31.82.75.82h31.74c.39,0,.72-.3.75-.69l.36-4.16c.03-.39.36-.69.75-.69h4.16c.39,0,.72-.3.75-.69l.36-4.16c.03-.39.36-.69.75-.69h4.03c.44,0,.79.38.75.82l-.34,3.89c-.04.44.31.82.75.82h3.89c.44,0,.79.38.75.82l-.41,4.72-.41,4.73c-.04.44.31.82.75.82h3.89c.44,0,.79.38.75.82l-.41,4.72-.49,5.54-.48,5.55-.09,1.04h13.69c.44,0,.79.38.75.82l-.29,3.33c-.03.39-.36.69-.75.69h-13.13c-.39,0-.72.3-.75.69l-.39,4.51Z"/><path class="cls-1" d="M187.24,50.14l-.29,3.34c-.04.44.31.82.75.82h3.33c.39,0,.72-.3.75-.69l.29-3.34c.04-.44-.31-.82-.75-.82h-3.33c-.39,0-.72.3-.75.69Z"/><path class="cls-1" d="M185.58,69.2l.29-3.34c.04-.44-.31-.82-.75-.82h-3.33c-.39,0-.72.3-.75.69l-.29,3.34c-.04.44.31.82.75.82h3.33c.39,0,.72-.3.75-.69Z"/></svg>