<?xml version="1.0" encoding="UTF-8"?><svg id="_レイヤー_1" xmlns="http://www.w3.org/2000/svg" viewBox="0 0 449.75 338.89"><defs><style>.cls-1{fill:#7caa4a;}</style></defs><path class="cls-1" d="M70.97,265.33l-1.12,5.8c-.11.56.35.95,1.11.95h7.85c.75,0,1.21.4,1.11.95l-7.29,37.6c-.11.56-.72.95-1.48.95h-7.85c-.75,0-1.37.4-1.47.95l-1.12,5.8c-.11.56-.72.95-1.48.95h-7.85c-.75,0-1.37.4-1.47.95l-1.12,5.8c-.11.56-.72.95-1.48.95h-30.43c-.75,0-1.21-.4-1.11-.95l13.26-68.44c.11-.56.72-.95,1.48-.95h30.43c.75,0,1.21.4,1.11.95l-1.12,5.8c-.11.56.35.95,1.11.95h7.85c.75,0,1.21.4,1.11.95ZM30.69,318.35h16.56c.75,0,1.37-.4,1.48-.95l1.12-5.8c.11-.56.72-.95,1.48-.95h7.85c.75,0,1.37-.4,1.48-.95l6.92-35.69c.11-.56-.35-.95-1.11-.95h-7.85c-.75,0-1.21-.4-1.11-.95l1.12-5.8c.11-.56-.35-.95-1.11-.95h-16.56c-.75,0-1.37.4-1.48.95l-9.9,51.11c-.11.56.35.95,1.11.95Z"/><path class="cls-1" d="M192.78,257.62l-8.78,45.31c-.11.56-.72.95-1.47.95h-7.85c-.75,0-1.37.4-1.48.95l-1.12,5.8c-.11.56-.72.95-1.48.95h-7.85c-.75,0-1.37.4-1.47.95l-1.12,5.8c-.11.56-.72.95-1.48.95h-7.85c-.75,0-1.37.4-1.47.95l-1.12,5.8c-.11.56-.72.95-1.48.95h-20c-.75,0-1.21-.4-1.11-.95l13.26-68.44c.11-.56.72-.95,1.48-.95h9.57c.75,0,1.21.4,1.11.95l-11.58,59.77c-.11.56.35.95,1.11.95h6.13c.75,0,1.37-.4,1.48-.95l1.12-5.8c.11-.56.72-.95,1.48-.95h7.85c.75,0,1.37-.4,1.48-.95l1.12-5.8c.11-.56.72-.95,1.47-.95h7.85c.75,0,1.37-.4,1.48-.95l8.59-44.35c.11-.56.72-.95,1.48-.95h9.57c.75,0,1.21.4,1.11.95Z"/><path class="cls-1" d="M288.44,265.33l-1.12,5.8c-.11.56.35.95,1.11.95h7.85c.75,0,1.21.4,1.11.95l-7.29,37.6c-.11.56-.72.95-1.48.95h-7.85c-.75,0-1.37.4-1.47.95l-1.12,5.8c-.11.56-.72.95-1.48.95h-7.85c-.75,0-1.37.4-1.47.95l-1.12,5.8c-.11.56-.72.95-1.48.95h-30.43c-.75,0-1.21-.4-1.11-.95l13.26-68.44c.11-.56.72-.95,1.48-.95h30.43c.75,0,1.21.4,1.11.95l-1.12,5.8c-.11.56.35.95,1.11.95h7.85c.75,0,1.21.4,1.11.95ZM248.17,318.35h16.56c.75,0,1.37-.4,1.48-.95l1.12-5.8c.11-.56.72-.95,1.48-.95h7.85c.75,0,1.37-.4,1.48-.95l6.92-35.69c.11-.56-.35-.95-1.11-.95h-7.85c-.75,0-1.21-.4-1.11-.95l1.12-5.8c.11-.56-.35-.95-1.11-.95h-16.56c-.75,0-1.37.4-1.48.95l-9.9,51.11c-.11.56.35.95,1.11.95Z"/><path class="cls-1" d="M353.92,319.3l-1.31,6.76c-.11.56-.72.95-1.48.95h-47.14c-.75,0-1.21-.4-1.11-.95l13.26-68.44c.11-.56.72-.95,1.48-.95h47.14c.75,0,1.21.4,1.11.95l-1.31,6.76c-.11.56-.72.95-1.47.95h-34.99c-.75,0-1.37.4-1.48.95l-3.93,20.27c-.11.56.35.95,1.11.95h26.39c.75,0,1.21.4,1.11.95l-1.31,6.76c-.11.56-.72.95-1.47.95h-26.39c-.75,0-1.37.4-1.48.95l-3.93,20.27c-.11.56.35.95,1.11.95h34.99c.75,0,1.21.4,1.11.95Z"/><path class="cls-1" d="M386.11,297.13l-5.61,28.93c-.11.56-.72.95-1.48.95h-9.57c-.75,0-1.21-.4-1.11-.95l13.26-68.44c.11-.56.72-.95,1.48-.95h40.86c.75,0,1.21.4,1.11.95l-1.12,5.8c-.11.56.35.95,1.11.95h7.85c.75,0,1.21.4,1.11.95l-4.3,22.18c-.11.56-.72.95-1.47.95h-7.85c-.75,0-1.37.4-1.48.95l-.94,4.85c-.11.56.35.95,1.11.95h7.85c.75,0,1.21.4,1.11.95l-5.79,29.89c-.11.56-.72.95-1.48.95h-9.57c-.75,0-1.21-.4-1.11-.95l5.61-28.93c.11-.56-.35-.95-1.11-.95h-26.99c-.75,0-1.37.4-1.48.95ZM420.55,265.33h-26.99c-.75,0-1.37.4-1.48.95l-3.93,20.27c-.11.56.35.95,1.11.95h26.99c.75,0,1.37-.4,1.48-.95l3.93-20.27c.11-.56-.35-.95-1.11-.95Z"/><path class="cls-1" d="M100.24,326.98h-10.57c-.6,0-.99-.49-.88-1.09l13.2-68.14c.12-.6.7-1.09,1.3-1.09h10.57c.6,0,.99.49.88,1.09l-13.2,68.14c-.12.6-.7,1.09-1.3,1.09Z"/><path class="cls-1" d="M209.5,326.98h-10.57c-.6,0-.99-.49-.88-1.09l13.2-68.14c.12-.6.7-1.09,1.3-1.09h10.57c.6,0,.99.49.88,1.09l-13.2,68.14c-.12.6-.7,1.09-1.3,1.09Z"/><path class="cls-1" d="M216.5,49.29h3.33c.39,0,.72-.3.75-.69l.29-3.34c.04-.44-.31-.82-.75-.82h-3.33c-.39,0-.72.3-.75.69l-.29,3.34c-.04.44.31.82.75.82Z"/><path class="cls-1" d="M219.99,64.88h3.33c.39,0,.72-.3.75-.69l.29-3.34c.04-.44-.31-.82-.75-.82h-3.33c-.39,0-.72.3-.75.69l-.29,3.34c-.04.44.31.82.75.82Z"/><path class="cls-1" d="M317.56,56.22l-.06.69h8.84c.44,0,.79.38.75.82l-.35,4.02-.37,4.16c-.03.39-.36.69-.75.69h-3.33c-.44,0-.79-.38-.75-.82l.28-3.2c.04-.44-.31-.82-.75-.82h-8.84c-.39,0-.72.3-.75.69l-.42,4.85-.43,4.86c-.03.39-.36.69-.75.69h-4.15c-.39,0-.72.3-.75.69l-.36,4.16c-.03.39-.36.69-.75.69h-4.16c-.39,0-.72.3-.75.69l-.36,4.16c-.03.39-.36.69-.75.69h-4.16c-.39,0-.72.3-.75.69l-.42,4.86-.48,5.54-.49,5.54-.41,4.73c-.04.44.31.82.75.82h3.89c.44,0,.79.38.75.82l-.41,4.72-.49,5.55-.48,5.54-.48,5.54-.42,4.73c-.04.44.31.82.75.82h3.89c.44,0,.79.38.75.82l-.41,4.72-.48,5.54-.49,5.55-.48,5.54-.49,5.55-.48,5.54-.48,5.54-.49,5.55-.48,5.54-.49,5.54-.48,5.55-.41,4.72c-.04.44.31.82.75.82h3.89c.44,0,.79.38.75.82l-.36,4.03c-.03.39-.36.69-.75.69h-142.59c-.44,0-.79-.38-.75-.82l.35-4.03c.03-.39.36-.69.75-.69h37.41c.39,0,.72-.3.75-.69l.42-4.85.49-5.55.48-5.54.49-5.54.48-5.55.48-5.54.43-4.85c.03-.39.36-.69.75-.69h4.15c.39,0,.72-.3.75-.69l.43-4.86.48-5.54.48-5.55.49-5.54.42-4.85c.03-.39.36-.69.75-.69h4.16c.39,0,.72-.3.75-.69l.42-4.86.48-5.54.49-5.54.42-4.86c.03-.39.36-.69.75-.69h4.16c.39,0,.72-.3.75-.69l.42-4.85.48-5.55.49-5.54.42-4.85c.03-.39.36-.69.75-.69h4.16c.39,0,.72-.3.75-.69l.42-4.86.48-5.54.43-4.85c.03-.39.36-.69.75-.69h4.15c.39,0,.72-.3.75-.69l.43-4.86.48-5.54.48-5.54.1-1.04h-4.12c-.39,0-.72.3-.75.69l-.3,3.46c-.03.39-.36.69-.75.69h-3.34c-.44,0-.79-.38-.75-.82l.35-4.02.36-4.16c.03-.39.36-.69.75-.69h8.27c.39,0,.72-.3.75-.69l.39-4.5.06-.69h-13.68c-.44,0-.79-.38-.75-.82l.29-3.34c.03-.39.36-.69.75-.69h18.66c.39,0,.72-.3.75-.69l.42-4.85.43-4.85c.03-.39.36-.69.75-.69h4.15c.39,0,.72-.3.75-.69l.43-4.86.42-4.85c.03-.39.36-.69.75-.69h4.15c.39,0,.72-.3.75-.69l.37-4.16c.03-.39.36-.69.75-.69h4.02c.44,0,.79.38.75.82l-.34,3.9c-.04.44.31.82.75.82h3.89c.44,0,.79.38.75.82l-.34,3.9c-.04.44.31.82.75.82h31.74c.39,0,.72-.3.75-.69l.36-4.16c.03-.39.36-.69.75-.69h4.16c.39,0,.72-.3.75-.69l.36-4.16c.03-.39.36-.69.75-.69h4.03c.44,0,.79.38.75.82l-.34,3.89c-.04.44.31.82.75.82h3.89c.44,0,.79.38.75.82l-.41,4.72-.41,4.73c-.04.44.31.82.75.82h3.89c.44,0,.79.38.75.82l-.41,4.72-.49,5.54-.48,5.55-.09,1.04h13.69c.44,0,.79.38.75.82l-.29,3.33c-.03.39-.36.69-.75.69h-13.13c-.39,0-.72.3-.75.69l-.39,4.51Z"/><path class="cls-1" d="M332.47,51.71l-.29,3.34c-.04.44.31.82.75.82h3.33c.39,0,.72-.3.75-.69l.29-3.34c.04-.44-.31-.82-.75-.82h-3.33c-.39,0-.72.3-.75.69Z"/><path class="cls-1" d="M330.81,70.77l.29-3.34c.04-.44-.31-.82-.75-.82h-3.33c-.39,0-.72.3-.75.69l-.29,3.34c-.04.44.31.82.75.82h3.33c.39,0,.72-.3.75-.69Z"/></svg>