<?xml version="1.0" encoding="UTF-8"?><svg id="_レイヤー_1" xmlns="http://www.w3.org/2000/svg" viewBox="0 0 600 400"><defs><style>.cls-1{fill:#171917;}.cls-2{fill:#7caa4a;}</style></defs><rect class="cls-1" x="0" width="600" height="400"/><path class="cls-2" d="M233.87,241.2l-.48,2.49c-.05.24.15.41.47.41h3.37c.32,0,.52.17.48.41l-3.13,16.15c-.05.24-.31.41-.63.41h-3.37c-.32,0-.59.17-.63.41l-.48,2.49c-.05.24-.31.41-.63.41h-3.37c-.32,0-.59.17-.63.41l-.48,2.49c-.05.24-.31.41-.63.41h-13.07c-.32,0-.52-.17-.47-.41l5.7-29.4c.05-.24.31-.41.63-.41h13.07c.32,0,.52.17.48.41l-.48,2.49c-.05.24.15.41.47.41h3.37c.32,0,.52.17.48.41ZM216.57,263.98h7.11c.32,0,.59-.17.63-.41l.48-2.49c.05-.24.31-.41.63-.41h3.37c.32,0,.59-.17.63-.41l2.97-15.33c.05-.24-.15-.41-.47-.41h-3.37c-.32,0-.52-.17-.48-.41l.48-2.49c.05-.24-.15-.41-.47-.41h-7.11c-.32,0-.59.17-.63.41l-4.26,21.96c-.05.24.15.41.47.41Z"/><path class="cls-2" d="M286.21,237.88l-3.77,19.47c-.05.24-.31.41-.63.41h-3.37c-.32,0-.59.17-.63.41l-.48,2.49c-.05.24-.31.41-.63.41h-3.37c-.32,0-.59.17-.63.41l-.48,2.49c-.05.24-.31.41-.63.41h-3.37c-.32,0-.59.17-.63.41l-.48,2.49c-.05.24-.31.41-.63.41h-8.59c-.32,0-.52-.17-.47-.41l5.7-29.4c.05-.24.31-.41.63-.41h4.11c.32,0,.52.17.47.41l-4.98,25.68c-.05.24.15.41.47.41h2.63c.32,0,.59-.17.63-.41l.48-2.49c.05-.24.31-.41.63-.41h3.37c.32,0,.59-.17.63-.41l.48-2.49c.05-.24.31-.41.63-.41h3.37c.32,0,.59-.17.63-.41l3.69-19.06c.05-.24.31-.41.63-.41h4.11c.32,0,.52.17.47.41Z"/><path class="cls-2" d="M327.31,241.2l-.48,2.49c-.05.24.15.41.47.41h3.37c.32,0,.52.17.48.41l-3.13,16.15c-.05.24-.31.41-.63.41h-3.37c-.32,0-.59.17-.63.41l-.48,2.49c-.05.24-.31.41-.63.41h-3.37c-.32,0-.59.17-.63.41l-.48,2.49c-.05.24-.31.41-.63.41h-13.07c-.32,0-.52-.17-.47-.41l5.7-29.4c.05-.24.31-.41.63-.41h13.07c.32,0,.52.17.48.41l-.48,2.49c-.05.24.15.41.47.41h3.37c.32,0,.52.17.48.41ZM310.01,263.98h7.11c.32,0,.59-.17.63-.41l.48-2.49c.05-.24.31-.41.63-.41h3.37c.32,0,.59-.17.63-.41l2.97-15.33c.05-.24-.15-.41-.47-.41h-3.37c-.32,0-.52-.17-.48-.41l.48-2.49c.05-.24-.15-.41-.47-.41h-7.11c-.32,0-.59.17-.63.41l-4.26,21.96c-.05.24.15.41.47.41Z"/><path class="cls-2" d="M355.45,264.39l-.56,2.9c-.05.24-.31.41-.63.41h-20.25c-.32,0-.52-.17-.47-.41l5.7-29.4c.05-.24.31-.41.63-.41h20.25c.32,0,.52.17.47.41l-.56,2.9c-.05.24-.31.41-.63.41h-15.03c-.32,0-.59.17-.63.41l-1.69,8.71c-.05.24.15.41.47.41h11.34c.32,0,.52.17.48.41l-.56,2.9c-.05.24-.31.41-.63.41h-11.34c-.32,0-.59.17-.63.41l-1.69,8.71c-.05.24.15.41.47.41h15.03c.32,0,.52.17.47.41Z"/><path class="cls-2" d="M369.27,254.86l-2.41,12.43c-.05.24-.31.41-.63.41h-4.11c-.32,0-.52-.17-.47-.41l5.7-29.4c.05-.24.31-.41.63-.41h17.56c.32,0,.52.17.47.41l-.48,2.49c-.05.24.15.41.47.41h3.37c.32,0,.52.17.48.41l-1.85,9.53c-.05.24-.31.41-.63.41h-3.37c-.32,0-.59.17-.63.41l-.4,2.08c-.05.24.15.41.47.41h3.37c.32,0,.52.17.48.41l-2.49,12.84c-.05.24-.31.41-.63.41h-4.11c-.32,0-.52-.17-.48-.41l2.41-12.43c.05-.24-.15-.41-.47-.41h-11.6c-.32,0-.59.17-.63.41ZM384.07,241.2h-11.6c-.32,0-.59.17-.63.41l-1.69,8.71c-.05.24.15.41.47.41h11.6c.32,0,.59-.17.63-.41l1.69-8.71c.05-.24-.15-.41-.47-.41Z"/><path class="cls-2" d="M246.45,267.69h-4.54c-.26,0-.43-.21-.38-.47l5.67-29.28c.05-.26.3-.47.56-.47h4.54c.26,0,.43.21.38.47l-5.67,29.28c-.05.26-.3.47-.56.47Z"/><path class="cls-2" d="M293.39,267.69h-4.54c-.26,0-.43-.21-.38-.47l5.67-29.28c.05-.26.3-.47.56-.47h4.54c.26,0,.43.21.38.47l-5.67,29.28c-.05.26-.3.47-.56.47Z"/><path class="cls-2" d="M296.4,148.37h1.43c.17,0,.31-.13.32-.3l.13-1.43c.02-.19-.13-.35-.32-.35h-1.43c-.17,0-.31.13-.32.3l-.13,1.43c-.02.19.13.35.32.35Z"/><path class="cls-2" d="M297.9,155.07h1.43c.17,0,.31-.13.32-.3l.13-1.43c.02-.19-.13-.35-.32-.35h-1.43c-.17,0-.31.13-.32.3l-.13,1.43c-.02.19.13.35.32.35Z"/><path class="cls-2" d="M339.82,151.35l-.03.3h3.8c.19,0,.34.16.32.35l-.15,1.73-.16,1.79c-.01.17-.16.3-.32.3h-1.43c-.19,0-.34-.16-.32-.35l.12-1.38c.02-.19-.13-.35-.32-.35h-3.8c-.17,0-.31.13-.32.3l-.18,2.08-.18,2.09c-.01.17-.16.3-.32.3h-1.78c-.17,0-.31.13-.32.3l-.15,1.79c-.01.17-.16.3-.32.3h-1.79c-.17,0-.31.13-.32.3l-.15,1.79c-.01.17-.16.3-.32.3h-1.79c-.17,0-.31.13-.32.3l-.18,2.09-.21,2.38-.21,2.38-.18,2.03c-.02.19.13.35.32.35h1.67c.19,0,.34.16.32.35l-.18,2.03-.21,2.38-.21,2.38-.21,2.38-.18,2.03c-.02.19.13.35.32.35h1.67c.19,0,.34.16.32.35l-.18,2.03-.21,2.38-.21,2.38-.21,2.38-.21,2.38-.21,2.38-.21,2.38-.21,2.38-.21,2.38-.21,2.38-.21,2.38-.18,2.03c-.02.19.13.35.32.35h1.67c.19,0,.34.16.32.35l-.15,1.73c-.01.17-.16.3-.32.3h-61.26c-.19,0-.34-.16-.32-.35l.15-1.73c.01-.17.16-.3.32-.3h16.08c.17,0,.31-.13.32-.3l.18-2.08.21-2.38.21-2.38.21-2.38.21-2.38.21-2.38.18-2.08c.01-.17.16-.3.32-.3h1.79c.17,0,.31-.13.32-.3l.18-2.09.21-2.38.21-2.38.21-2.38.18-2.08c.01-.17.16-.3.32-.3h1.79c.17,0,.31-.13.32-.3l.18-2.09.21-2.38.21-2.38.18-2.09c.01-.17.16-.3.32-.3h1.79c.17,0,.31-.13.32-.3l.18-2.08.21-2.38.21-2.38.18-2.08c.01-.17.16-.3.32-.3h1.79c.17,0,.31-.13.32-.3l.18-2.09.21-2.38.18-2.08c.01-.17.16-.3.32-.3h1.79c.17,0,.31-.13.32-.3l.18-2.09.21-2.38.21-2.38.04-.45h-1.77c-.17,0-.31.13-.32.3l-.13,1.49c-.01.17-.16.3-.32.3h-1.43c-.19,0-.34-.16-.32-.35l.15-1.73.15-1.79c.01-.17.16-.3.32-.3h3.55c.17,0,.31-.13.32-.3l.17-1.93.03-.3h-5.88c-.19,0-.34-.16-.32-.35l.12-1.44c.01-.17.16-.3.32-.3h8.02c.17,0,.31-.13.32-.3l.18-2.08.18-2.08c.01-.17.16-.3.32-.3h1.78c.17,0,.31-.13.32-.3l.18-2.09.18-2.08c.01-.17.16-.3.32-.3h1.78c.17,0,.31-.13.32-.3l.16-1.79c.01-.17.16-.3.32-.3h1.73c.19,0,.34.16.32.35l-.15,1.67c-.02.19.13.35.32.35h1.67c.19,0,.34.16.32.35l-.15,1.67c-.02.19.13.35.32.35h13.64c.17,0,.31-.13.32-.3l.15-1.79c.01-.17.16-.3.32-.3h1.79c.17,0,.31-.13.32-.3l.15-1.79c.01-.17.16-.3.32-.3h1.73c.19,0,.34.16.32.35l-.15,1.67c-.02.19.13.35.32.35h1.67c.19,0,.34.16.32.35l-.18,2.03-.18,2.03c-.02.19.13.35.32.35h1.67c.19,0,.34.16.32.35l-.18,2.03-.21,2.38-.21,2.38-.04.45h5.88c.19,0,.34.16.32.35l-.12,1.43c-.01.17-.16.3-.32.3h-5.64c-.17,0-.31.13-.32.3l-.17,1.94Z"/><path class="cls-2" d="M346.23,149.41l-.13,1.43c-.02.19.13.35.32.35h1.43c.17,0,.31-.13.32-.3l.13-1.43c.02-.19-.13-.35-.32-.35h-1.43c-.17,0-.31.13-.32.3Z"/><path class="cls-2" d="M345.52,157.6l.13-1.43c.02-.19-.13-.35-.32-.35h-1.43c-.17,0-.31.13-.32.3l-.13,1.43c-.02.19.13.35.32.35h1.43c.17,0,.31-.13.32-.3Z"/></svg>