<?xml version="1.0" encoding="UTF-8"?><svg id="_レイヤー_1" xmlns="http://www.w3.org/2000/svg" viewBox="0 0 474.9 92.38"><defs><style>.cls-1{fill:#7caa4a;}</style></defs><path class="cls-1" d="M151.77,29.2l-.97,5.02c-.09.48.31.83.96.83h6.79c.65,0,1.05.34.96.82l-6.3,32.53c-.09.48-.62.83-1.28.83h-6.79c-.65,0-1.18.34-1.28.82l-.97,5.02c-.09.48-.63.83-1.28.83h-6.79c-.65,0-1.18.34-1.28.82l-.97,5.02c-.09.48-.63.83-1.28.83h-26.33c-.65,0-1.05-.34-.96-.83l11.48-59.22c.09-.48.63-.83,1.28-.83h26.33c.65,0,1.05.34.96.83l-.97,5.02c-.09.48.3.83.96.83h6.79c.65,0,1.05.34.96.82ZM116.92,75.08h14.33c.65,0,1.18-.34,1.28-.83l.97-5.02c.09-.48.63-.83,1.28-.83h6.79c.65,0,1.18-.34,1.28-.83l5.98-30.88c.09-.48-.3-.83-.96-.83h-6.79c-.65,0-1.05-.34-.96-.82l.97-5.02c.09-.48-.31-.83-.96-.83h-14.33c-.65,0-1.18.34-1.28.83l-8.57,44.22c-.09.48.31.83.96.83Z"/><path class="cls-1" d="M257.18,22.53l-7.6,39.2c-.09.48-.63.82-1.28.82h-6.79c-.65,0-1.18.34-1.28.83l-.97,5.02c-.09.48-.63.83-1.28.83h-6.79c-.65,0-1.18.34-1.28.82l-.97,5.02c-.09.48-.63.83-1.28.83h-6.79c-.65,0-1.18.34-1.28.82l-.97,5.02c-.09.48-.63.83-1.28.83h-17.31c-.65,0-1.05-.34-.96-.83l11.48-59.22c.09-.48.63-.83,1.28-.83h8.28c.65,0,1.05.34.96.83l-10.02,51.72c-.09.48.31.83.96.83h5.3c.65,0,1.18-.34,1.28-.83l.97-5.02c.09-.48.62-.83,1.28-.83h6.79c.65,0,1.18-.34,1.28-.83l.97-5.02c.09-.48.63-.82,1.28-.82h6.79c.65,0,1.18-.34,1.28-.83l7.44-38.38c.09-.48.63-.83,1.28-.83h8.28c.65,0,1.05.34.96.83Z"/><path class="cls-1" d="M340.61,29.2l-.97,5.02c-.09.48.31.83.96.83h6.79c.65,0,1.05.34.96.82l-6.3,32.53c-.09.48-.62.83-1.28.83h-6.79c-.65,0-1.18.34-1.28.82l-.97,5.02c-.09.48-.63.83-1.28.83h-6.79c-.65,0-1.18.34-1.28.82l-.97,5.02c-.09.48-.63.83-1.28.83h-26.33c-.65,0-1.05-.34-.96-.83l11.48-59.22c.09-.48.63-.83,1.28-.83h26.33c.65,0,1.05.34.96.83l-.97,5.02c-.09.48.3.83.96.83h6.79c.65,0,1.05.34.96.82ZM305.76,75.08h14.33c.65,0,1.18-.34,1.28-.83l.97-5.02c.09-.48.63-.83,1.28-.83h6.79c.65,0,1.18-.34,1.28-.83l5.98-30.88c.09-.48-.3-.83-.96-.83h-6.79c-.65,0-1.05-.34-.96-.82l.97-5.02c.09-.48-.31-.83-.96-.83h-14.33c-.65,0-1.18.34-1.28.83l-8.57,44.22c-.09.48.31.83.96.83Z"/><path class="cls-1" d="M397.27,75.9l-1.13,5.85c-.09.48-.62.83-1.28.83h-40.79c-.65,0-1.05-.34-.96-.83l11.48-59.22c.09-.48.63-.83,1.28-.83h40.79c.65,0,1.05.34.96.83l-1.13,5.85c-.09.48-.62.82-1.28.82h-30.28c-.65,0-1.18.34-1.28.83l-3.4,17.54c-.09.48.31.83.96.83h22.84c.65,0,1.05.34.96.82l-1.13,5.85c-.09.48-.63.82-1.28.82h-22.84c-.65,0-1.18.34-1.28.83l-3.4,17.54c-.09.48.31.83.96.83h30.28c.65,0,1.05.34.96.83Z"/><path class="cls-1" d="M425.12,56.71l-4.85,25.04c-.09.48-.63.83-1.28.83h-8.28c-.65,0-1.05-.34-.96-.83l11.48-59.22c.09-.48.63-.83,1.28-.83h35.36c.65,0,1.05.34.96.83l-.97,5.02c-.09.48.31.83.96.83h6.79c.65,0,1.05.34.96.82l-3.72,19.19c-.09.48-.63.82-1.28.82h-6.79c-.65,0-1.18.34-1.28.83l-.81,4.2c-.09.48.31.83.96.83h6.79c.65,0,1.05.34.96.82l-5.01,25.86c-.09.48-.63.83-1.28.83h-8.28c-.65,0-1.05-.34-.96-.83l4.85-25.04c.09-.48-.3-.83-.96-.83h-23.35c-.65,0-1.18.34-1.28.83ZM454.92,29.2h-23.35c-.65,0-1.18.34-1.28.83l-3.4,17.54c-.09.48.31.83.96.83h23.35c.65,0,1.18-.34,1.28-.83l3.4-17.54c.09-.48-.3-.83-.96-.83Z"/><path class="cls-1" d="M177.1,82.55h-9.15c-.52,0-.86-.42-.76-.94l11.43-58.96c.1-.52.6-.94,1.12-.94h9.15c.52,0,.86.42.76.94l-11.43,58.96c-.1.52-.6.94-1.12.94Z"/><path class="cls-1" d="M271.64,82.55h-9.15c-.52,0-.86-.42-.76-.94l11.43-58.96c.1-.52.6-.94,1.12-.94h9.15c.52,0,.86.42.76.94l-11.43,58.96c-.1.52-.6.94-1.12.94Z"/><path class="cls-1" d="M34.82,20.56h1.43c.17,0,.31-.13.32-.3l.13-1.44c.02-.19-.13-.35-.32-.35h-1.43c-.17,0-.31.13-.32.3l-.13,1.44c-.02.19.13.35.32.35Z"/><path class="cls-1" d="M36.32,27.26h1.43c.17,0,.31-.13.32-.3l.13-1.44c.02-.19-.13-.35-.32-.35h-1.43c-.17,0-.31.13-.32.3l-.13,1.44c-.02.19.13.35.32.35Z"/><path class="cls-1" d="M78.3,23.54l-.03.3h3.8c.19,0,.34.16.32.35l-.15,1.73-.16,1.79c-.01.17-.16.3-.32.3h-1.43c-.19,0-.34-.16-.32-.35l.12-1.38c.02-.19-.13-.35-.32-.35h-3.8c-.17,0-.31.13-.32.3l-.18,2.09-.18,2.09c-.01.17-.16.3-.32.3h-1.79c-.17,0-.31.13-.32.3l-.16,1.79c-.01.17-.16.3-.32.3h-1.79c-.17,0-.31.13-.32.3l-.16,1.79c-.01.17-.16.3-.32.3h-1.79c-.17,0-.31.13-.32.3l-.18,2.09-.21,2.38-.21,2.38-.18,2.03c-.02.19.13.35.32.35h1.67c.19,0,.34.16.32.35l-.18,2.03-.21,2.39-.21,2.38-.21,2.38-.18,2.03c-.02.19.13.35.32.35h1.67c.19,0,.34.16.32.35l-.18,2.03-.21,2.38-.21,2.39-.21,2.38-.21,2.39-.21,2.38-.21,2.38-.21,2.39-.21,2.38-.21,2.38-.21,2.39-.18,2.03c-.02.19.13.35.32.35h1.67c.19,0,.34.16.32.35l-.15,1.73c-.01.17-.16.3-.32.3H8.66c-.19,0-.34-.16-.32-.35l.15-1.73c.01-.17.16-.3.32-.3h16.1c.17,0,.31-.13.32-.3l.18-2.09.21-2.39.21-2.38.21-2.38.21-2.39.21-2.38.18-2.09c.01-.17.16-.3.32-.3h1.79c.17,0,.31-.13.32-.3l.18-2.09.21-2.38.21-2.39.21-2.38.18-2.09c.01-.17.16-.3.32-.3h1.79c.17,0,.31-.13.32-.3l.18-2.09.21-2.38.21-2.38.18-2.09c.01-.17.16-.3.32-.3h1.79c.17,0,.31-.13.32-.3l.18-2.09.21-2.39.21-2.38.18-2.09c.01-.17.16-.3.32-.3h1.79c.17,0,.31-.13.32-.3l.18-2.09.21-2.38.18-2.09c.01-.17.16-.3.32-.3h1.79c.17,0,.31-.13.32-.3l.18-2.09.21-2.38.21-2.38.04-.45h-1.77c-.17,0-.31.13-.32.3l-.13,1.49c-.01.17-.16.3-.32.3h-1.43c-.19,0-.34-.16-.32-.35l.15-1.73.15-1.79c.01-.17.16-.3.32-.3h3.56c.17,0,.31-.13.32-.3l.17-1.94.03-.3h-5.88c-.19,0-.34-.16-.32-.35l.12-1.44c.01-.17.16-.3.32-.3h8.03c.17,0,.31-.13.32-.3l.18-2.09.18-2.09c.01-.17.16-.3.32-.3h1.79c.17,0,.31-.13.32-.3l.18-2.09.18-2.09c.01-.17.16-.3.32-.3h1.79c.17,0,.31-.13.32-.3l.16-1.79c.01-.17.16-.3.32-.3h1.73c.19,0,.34.16.32.35l-.15,1.68c-.02.19.13.35.32.35h1.67c.19,0,.34.16.32.35l-.15,1.68c-.02.19.13.35.32.35h13.65c.17,0,.31-.13.32-.3l.16-1.79c.01-.17.16-.3.32-.3h1.79c.17,0,.31-.13.32-.3l.16-1.79c.01-.17.16-.3.32-.3h1.73c.19,0,.34.16.32.35l-.15,1.68c-.02.19.13.35.32.35h1.67c.19,0,.34.16.32.35l-.18,2.03-.18,2.03c-.02.19.13.35.32.35h1.67c.19,0,.34.16.32.35l-.18,2.03-.21,2.38-.21,2.39-.04.45h5.89c.19,0,.34.16.32.35l-.12,1.43c-.01.17-.16.3-.32.3h-5.65c-.17,0-.31.13-.32.3l-.17,1.94Z"/><path class="cls-1" d="M84.71,21.6l-.13,1.44c-.02.19.13.35.32.35h1.43c.17,0,.31-.13.32-.3l.13-1.44c.02-.19-.13-.35-.32-.35h-1.43c-.17,0-.31.13-.32.3Z"/><path class="cls-1" d="M84,29.8l.13-1.44c.02-.19-.13-.35-.32-.35h-1.43c-.17,0-.31.13-.32.3l-.13,1.44c-.02.19.13.35.32.35h1.43c.17,0,.31-.13.32-.3Z"/></svg>