<?xml version="1.0" encoding="UTF-8"?><svg id="_レイヤー_1" xmlns="http://www.w3.org/2000/svg" viewBox="0 0 384.15 71.59"><defs><style>.cls-1{fill:#7caa4a;}</style></defs><path class="cls-1" d="M58.57,12.86l-.97,5.02c-.09.48.31.83.96.83h6.79c.65,0,1.05.34.96.82l-6.3,32.53c-.09.48-.62.83-1.28.83h-6.79c-.65,0-1.18.34-1.28.82l-.97,5.02c-.09.48-.63.83-1.28.83h-6.79c-.65,0-1.18.34-1.28.82l-.97,5.02c-.09.48-.63.83-1.28.83H11.75c-.65,0-1.05-.34-.96-.83L22.27,6.19c.09-.48.63-.83,1.28-.83h26.33c.65,0,1.05.34.96.83l-.97,5.02c-.09.48.3.83.96.83h6.79c.65,0,1.05.34.96.82ZM23.72,58.73h14.33c.65,0,1.18-.34,1.28-.83l.97-5.02c.09-.48.63-.83,1.28-.83h6.79c.65,0,1.18-.34,1.28-.83l5.98-30.88c.09-.48-.3-.83-.96-.83h-6.79c-.65,0-1.05-.34-.96-.82l.97-5.02c.09-.48-.31-.83-.96-.83h-14.33c-.65,0-1.18.34-1.28.83l-8.57,44.22c-.09.48.31.83.96.83Z"/><path class="cls-1" d="M163.98,6.19l-7.6,39.2c-.09.48-.63.82-1.28.82h-6.79c-.65,0-1.18.34-1.28.83l-.97,5.02c-.09.48-.63.83-1.28.83h-6.79c-.65,0-1.18.34-1.28.82l-.97,5.02c-.09.48-.63.83-1.28.83h-6.79c-.65,0-1.18.34-1.28.82l-.97,5.02c-.09.48-.63.83-1.28.83h-17.31c-.65,0-1.05-.34-.96-.83l11.48-59.22c.09-.48.63-.83,1.28-.83h8.28c.65,0,1.05.34.96.83l-10.02,51.72c-.09.48.31.83.96.83h5.3c.65,0,1.18-.34,1.28-.83l.97-5.02c.09-.48.62-.83,1.28-.83h6.79c.65,0,1.18-.34,1.28-.83l.97-5.02c.09-.48.63-.82,1.28-.82h6.79c.65,0,1.18-.34,1.28-.83l7.44-38.38c.09-.48.63-.83,1.28-.83h8.28c.65,0,1.05.34.96.83Z"/><path class="cls-1" d="M247.41,12.86l-.97,5.02c-.09.48.31.83.96.83h6.79c.65,0,1.05.34.96.82l-6.3,32.53c-.09.48-.62.83-1.28.83h-6.79c-.65,0-1.18.34-1.28.82l-.97,5.02c-.09.48-.63.83-1.28.83h-6.79c-.65,0-1.18.34-1.28.82l-.97,5.02c-.09.48-.63.83-1.28.83h-26.33c-.65,0-1.05-.34-.96-.83l11.48-59.22c.09-.48.63-.83,1.28-.83h26.33c.65,0,1.05.34.96.83l-.97,5.02c-.09.48.3.83.96.83h6.79c.65,0,1.05.34.96.82ZM212.56,58.73h14.33c.65,0,1.18-.34,1.28-.83l.97-5.02c.09-.48.63-.83,1.28-.83h6.79c.65,0,1.18-.34,1.28-.83l5.98-30.88c.09-.48-.3-.83-.96-.83h-6.79c-.65,0-1.05-.34-.96-.82l.97-5.02c.09-.48-.31-.83-.96-.83h-14.33c-.65,0-1.18.34-1.28.83l-8.57,44.22c-.09.48.31.83.96.83Z"/><path class="cls-1" d="M304.07,59.56l-1.13,5.85c-.09.48-.62.83-1.28.83h-40.79c-.65,0-1.05-.34-.96-.83l11.48-59.22c.09-.48.63-.83,1.28-.83h40.79c.65,0,1.05.34.96.83l-1.13,5.85c-.09.48-.62.82-1.28.82h-30.28c-.65,0-1.18.34-1.28.83l-3.4,17.54c-.09.48.31.83.96.83h22.84c.65,0,1.05.34.96.82l-1.13,5.85c-.09.48-.63.82-1.28.82h-22.84c-.65,0-1.18.34-1.28.83l-3.4,17.54c-.09.48.31.83.96.83h30.28c.65,0,1.05.34.96.83Z"/><path class="cls-1" d="M331.92,40.37l-4.85,25.04c-.09.48-.63.83-1.28.83h-8.28c-.65,0-1.05-.34-.96-.83l11.48-59.22c.09-.48.63-.83,1.28-.83h35.36c.65,0,1.05.34.96.83l-.97,5.02c-.09.48.31.83.96.83h6.79c.65,0,1.05.34.96.82l-3.72,19.19c-.09.48-.63.82-1.28.82h-6.79c-.65,0-1.18.34-1.28.83l-.81,4.2c-.09.48.31.83.96.83h6.79c.65,0,1.05.34.96.82l-5.01,25.86c-.09.48-.63.83-1.28.83h-8.28c-.65,0-1.05-.34-.96-.83l4.85-25.04c.09-.48-.3-.83-.96-.83h-23.35c-.65,0-1.18.34-1.28.83ZM361.72,12.86h-23.35c-.65,0-1.18.34-1.28.83l-3.4,17.54c-.09.48.31.83.96.83h23.35c.65,0,1.18-.34,1.28-.83l3.4-17.54c.09-.48-.3-.83-.96-.83Z"/><path class="cls-1" d="M83.9,66.21h-9.15c-.52,0-.86-.42-.76-.94l11.43-58.96c.1-.52.6-.94,1.12-.94h9.15c.52,0,.86.42.76.94l-11.43,58.96c-.1.52-.6.94-1.12.94Z"/><path class="cls-1" d="M178.44,66.21h-9.15c-.52,0-.86-.42-.76-.94l11.43-58.96c.1-.52.6-.94,1.12-.94h9.15c.52,0,.86.42.76.94l-11.43,58.96c-.1.52-.6.94-1.12.94Z"/></svg>